<svg width="62" height="30" viewBox="0 0 62 30" fill="none" xmlns="http://www.w3.org/2000/svg">
<path d="M31.0029 30L5.12604e-06 12.102L0.295495 11.5906L31.0029 29.3172L61.7045 11.5906L62 12.102L31.0029 30Z" fill="url(#paint0_linear_706_250)"/>
<path d="M31.0029 24.5009L5.12604e-06 6.60292L0.295495 6.09158L31.0029 23.8182L61.7045 6.09159L62 6.60292L31.0029 24.5009Z" fill="url(#paint1_linear_706_250)"/>
<path d="M31.0029 18.4093L5.12604e-06 0.511338L0.295495 1.29164e-08L31.0029 17.7266L61.7045 2.69719e-06L62 0.511341L31.0029 18.4093Z" fill="url(#paint2_linear_706_250)"/>
<defs>
<linearGradient id="paint0_linear_706_250" x1="31" y1="11.5906" x2="31" y2="30" gradientUnits="userSpaceOnUse">
<stop stop-color="white" stop-opacity="0"/>
<stop offset="1" stop-color="white"/>
</linearGradient>
<linearGradient id="paint1_linear_706_250" x1="31" y1="6.09158" x2="31" y2="24.5009" gradientUnits="userSpaceOnUse">
<stop stop-color="white" stop-opacity="0"/>
<stop offset="1" stop-color="white"/>
</linearGradient>
<linearGradient id="paint2_linear_706_250" x1="31" y1="1.35505e-06" x2="31" y2="18.4093" gradientUnits="userSpaceOnUse">
<stop stop-color="white" stop-opacity="0"/>
<stop offset="1" stop-color="white"/>
</linearGradient>
</defs>
</svg>
