<svg width="103" height="96" viewBox="0 0 103 96" fill="none" xmlns="http://www.w3.org/2000/svg">
<mask id="mask0_68_687" style="mask-type:luminance" maskUnits="userSpaceOnUse" x="-1" y="0" width="104" height="96">
<path d="M102.255 0H-0.150391V96H102.255V0Z" fill="white"/>
</mask>
<g mask="url(#mask0_68_687)">
<path d="M6.19559 58.5569C5.9979 58.5569 5.78043 58.5569 5.58274 58.3592L1.07533 55.7299C0.561322 55.4334 0.363628 54.7217 0.660169 54.2077C0.956709 53.6936 1.68818 53.496 2.20218 53.7925L6.70959 56.4416C7.2236 56.7381 7.42129 57.4498 7.12475 57.9638C6.92706 58.3592 6.61075 58.5767 6.19559 58.5767" fill="#FCB44A"/>
<path d="M5.78036 30.9587C5.46405 30.9587 5.16751 30.8599 4.96981 30.6622L0.16586 25.878C-0.249297 25.4629 -0.249297 24.7709 0.16586 24.2569C0.581016 23.8418 1.29271 23.8418 1.80672 24.2569L6.61067 29.0213C7.02583 29.4365 7.02583 30.1284 6.61067 30.6424C6.41298 30.8401 6.09667 30.939 5.80013 30.939" fill="#FCB44A"/>
<path d="M51.8235 45.3707C51.4083 45.3707 51.1118 45.173 50.8943 44.8567L48.1266 40.7052C47.8103 40.1912 47.9289 39.4992 48.4429 39.1829C48.9569 38.8864 49.6686 38.9852 49.985 39.4795L52.7527 43.631C53.0492 44.145 52.9504 44.837 52.4364 45.1533C52.2387 45.2521 52.0212 45.351 51.8235 45.351" fill="#FCB44A"/>
<path d="M33.6158 31.3542C33.2007 31.3542 32.9041 31.1565 32.5878 30.8402L29.919 26.3724C29.6224 25.8583 29.8201 25.1467 30.3341 24.8501C30.8481 24.5536 31.5598 24.7513 31.8761 25.2653L34.545 29.7331C34.8415 30.2471 34.6438 30.9588 34.1298 31.2554C34.031 31.2554 33.8135 31.3542 33.6158 31.3542Z" fill="#FCB44A"/>
<path d="M20.311 76.5074C20.1133 76.5074 19.8958 76.4085 19.6981 76.3097L15.507 73.5617C14.993 73.2652 14.7953 72.5535 15.2105 72.0395C15.507 71.5255 16.2385 71.3278 16.7525 71.743L20.9436 74.4909C21.4576 74.7874 21.6553 75.4991 21.2599 76.0131C21.0622 76.3097 20.7459 76.5271 20.3307 76.5271" fill="#FCB44A"/>
<path d="M45.8923 79.9671C49.9846 79.9671 53.8791 81.4893 56.7457 84.3361L65.3453 92.8567C66.4722 93.9638 68.3107 94.0824 69.6353 93.0544C70.6633 91.8287 70.6633 90.0099 69.4376 88.7842L60.8379 80.2636C57.062 76.5074 55.6188 71.1302 56.8445 65.7529C58.0702 60.5733 56.3305 53.9901 51.8429 46.2603C47.9483 52.8633 46.1098 58.5371 46.4261 63.2027L46.5249 66.0494L40.0801 59.6639C37.6287 57.2323 36.7984 53.6738 37.8264 50.5305C39.3684 45.8649 37.9252 39.5783 33.6353 32.2636C30.571 37.4432 29.029 42.0099 28.8313 45.9638L28.7325 49.3048L26.7951 46.5569C26.3799 45.944 25.9846 45.1335 25.4705 44.3229C23.4343 40.4679 20.2514 34.6755 7.26297 31.2356C10.7424 44.1252 16.4755 47.2686 20.4491 49.3048C21.2597 49.7002 21.9911 50.1153 22.7028 50.6293L25.4705 52.5667L22.09 52.6656C18.0966 52.7644 13.4903 54.3855 8.27121 57.43C15.6452 61.7002 21.9714 63.1236 26.6962 61.6013C29.8593 60.5931 33.4376 61.4036 35.9088 63.8353L42.3536 70.2208L39.3882 70.1219C34.5842 69.9242 28.95 71.743 22.4063 75.4992C30.1757 80.0659 36.8379 81.687 42.057 80.4811C43.5002 80.1845 44.7061 79.9671 45.9516 79.9671M67.5793 96C66.1559 96 64.8116 95.486 63.7836 94.4778L55.085 85.9572C51.9219 82.8139 47.2168 81.4893 42.6106 82.6162C36.4821 84.0396 28.693 82.0033 19.6979 76.4284L18.2745 75.4201L19.8165 74.5107C26.1625 70.5569 31.9944 68.3229 36.9961 67.9078L34.4458 65.3773C32.6073 63.5585 29.9384 62.8468 27.5859 63.6574C21.8528 65.5947 14.3799 63.7562 5.70119 58.3789L4.15918 57.4695L5.70119 56.5602C10.4063 53.6145 14.7951 51.7957 18.6897 50.9852C14.3997 48.6524 8.05374 44.5008 4.67318 30.089L4.25803 28.3691L6.09658 28.7842C20.6271 32.1252 24.8182 38.3328 27.0719 42.4844C27.8824 38.6293 29.7407 34.2603 32.7061 29.5948L33.6353 28.0725L34.5644 29.5948C40.0999 38.3328 41.8198 45.6277 39.8824 51.3213C39.0719 53.6541 39.7836 56.2834 41.6221 58.1219L44.1724 60.6524C44.5875 55.6705 46.8215 49.9967 50.8149 43.6112L51.744 42.089L52.6732 43.6112C58.3074 52.547 60.4425 60.1582 58.9203 66.346C57.7934 70.9127 59.118 75.5783 62.3009 78.7216L70.9005 87.2422C72.9368 89.2784 73.0554 92.4218 71.0982 94.5569L71.1971 94.7546C70.1691 95.6639 68.8445 96.0791 67.6188 96.0791" fill="#FCB44A"/>
<path d="M49.9845 69.2125C49.6681 69.2125 49.3716 69.1136 49.1739 68.9159L44.37 64.1515C43.9548 63.7561 43.9548 63.0444 44.37 62.5304C44.7851 62.135 45.4968 62.135 46.0108 62.5304L50.8148 67.2948C51.2299 67.6902 51.2299 68.4019 50.8148 68.9159C50.6171 69.0148 50.3008 69.2125 50.0042 69.2125" fill="#FCB44A"/>
<path d="M44.3507 74.7874C44.0344 74.7874 43.7378 74.6886 43.5401 74.4909L38.7362 69.7265C38.321 69.3311 38.321 68.6194 38.7362 68.1054C39.1513 67.71 39.863 67.71 40.377 68.1054L45.181 72.8698C45.5961 73.2652 45.5961 73.9769 45.181 74.4909C44.9833 74.6886 44.667 74.7874 44.3704 74.7874" fill="#FCB44A"/>
<path d="M81.7937 76.2108H63.685C63.0721 76.2108 62.5581 75.6968 62.5581 75.1037C62.5581 74.5106 63.0721 73.9966 63.685 73.9966H81.6949C89.5828 73.9966 96.423 69.2322 98.7756 62.0164C99.3884 59.9801 99.8036 57.9637 99.8036 56.224C99.8036 49.7396 97.5499 43.1366 93.4576 37.6605L93.3588 37.5617L79.6586 15.5386H57.2599L43.2435 37.6605C42.9469 38.1745 42.2155 38.3722 41.7015 37.9571C41.1875 37.6605 40.9898 36.9488 41.3852 36.4348L56.1133 13.3047H81.082L95.5136 36.4348C99.9222 42.3261 102.275 49.3245 102.275 56.3228C102.275 58.3591 101.86 60.593 101.148 62.8072C98.3802 70.8335 90.7097 76.2108 81.8135 76.2108" fill="#FCB44A"/>
<path d="M80.3704 15.5189C80.0541 15.5189 79.7576 15.4201 79.5599 15.2224C79.1447 14.827 79.1447 14.1153 79.5599 13.6013L87.5467 5.99012L85.1941 3.65733C84.265 2.74794 83.0393 2.23394 81.7147 2.23394C80.3902 2.23394 79.1645 2.74794 78.2353 3.65733L74.8548 6.99835L72.9174 5.06096C70.466 2.62932 66.4725 2.62932 64.0212 5.06096L62.0838 6.99835L58.7032 3.65733C57.774 2.74794 56.5483 2.23394 55.2238 2.23394C53.8992 2.23394 52.6735 2.74794 51.7444 3.65733L49.3918 5.99012L57.3786 13.6013C57.7938 14.0165 57.7938 14.7084 57.3786 15.2224C56.9635 15.6376 56.2518 15.6376 55.7378 15.2224L46.1299 5.99012L50.1233 2.03624C51.4478 0.711697 53.2864 0 55.1447 0C57.0821 0 58.8218 0.711697 60.1661 2.03624L61.9058 3.75618L62.2221 3.45964C65.6027 0.118616 71.0195 0.118616 74.4001 3.45964L74.6966 3.75618L76.634 2.03624C77.9585 0.711697 79.7971 0 81.6554 0C83.5928 0 85.3325 0.711697 86.6768 2.03624L90.6702 5.99012L81.0426 15.2224C80.9437 15.3213 80.6274 15.5189 80.4297 15.5189" fill="#FCB44A"/>
</g>
</svg>
