<svg width="190" height="176" viewBox="0 0 190 176" fill="none" xmlns="http://www.w3.org/2000/svg">
<path d="M142.95 45.5346C141.755 45.5346 140.609 46.0008 139.764 46.8306C138.919 47.6603 138.445 48.7857 138.445 49.9591C138.445 50.5402 138.561 51.1155 138.788 51.6523C139.014 52.1891 139.346 52.6769 139.764 53.0877C140.183 53.4986 140.679 53.8245 141.226 54.0469C141.773 54.2692 142.358 54.3837 142.95 54.3837C144.144 54.3794 145.287 53.9118 146.131 53.083C146.975 52.2541 147.451 51.1313 147.456 49.9591C147.456 48.7857 146.981 47.6603 146.136 46.8306C145.291 46.0008 144.145 45.5346 142.95 45.5346ZM142.95 55.4285C141.473 55.4285 140.056 54.8522 139.012 53.8265C137.967 52.8008 137.381 51.4097 137.381 49.9591C137.381 48.5086 137.967 47.1174 139.012 46.0917C140.056 45.0659 141.473 44.4898 142.95 44.4898C144.426 44.4941 145.84 45.0717 146.884 46.0964C147.927 47.1212 148.515 48.5099 148.52 49.9591C148.515 51.4084 147.927 52.7971 146.884 53.8218C145.84 54.8466 144.426 55.4242 142.95 55.4285ZM137.962 57.453C138.166 57.4511 138.367 57.5018 138.544 57.5999C139.167 57.936 139.824 58.2043 140.506 58.3999C140.72 58.4552 140.913 58.569 141.063 58.728C141.213 58.887 141.314 59.0846 141.354 59.2979L141.62 60.751H144.214L144.48 59.2979C144.517 59.0859 144.614 58.8887 144.762 58.7296C144.909 58.5705 145.1 58.4561 145.311 58.3999C145.993 58.2054 146.651 57.9371 147.273 57.5999C147.45 57.4988 147.65 57.4427 147.855 57.4367C148.098 57.4396 148.336 57.5135 148.536 57.649L149.767 58.4979L151.595 56.6857L150.748 55.4775C150.629 55.2944 150.566 55.0821 150.566 54.8653C150.566 54.6485 150.629 54.4361 150.748 54.253C151.094 53.6438 151.367 52.9973 151.562 52.3265C151.625 52.1174 151.745 51.9291 151.909 51.7823C152.073 51.6355 152.275 51.5357 152.493 51.4938L153.973 51.2326V48.6856L152.493 48.4244C152.274 48.3861 152.07 48.2876 151.905 48.1402C151.74 47.9929 151.622 47.8027 151.562 47.5918C151.378 46.9223 151.104 46.2799 150.748 45.6816C150.63 45.4954 150.567 45.2805 150.567 45.0612C150.567 44.8419 150.63 44.627 150.748 44.4408L151.595 43.2326L149.767 41.4204L148.536 42.2693C148.336 42.4048 148.098 42.4787 147.855 42.4816C147.65 42.4756 147.45 42.4195 147.273 42.3183C146.659 41.9808 146.006 41.7176 145.328 41.5346C145.113 41.4763 144.919 41.3596 144.769 41.1978C144.619 41.036 144.519 40.8358 144.48 40.6203L144.214 39.1673H141.72L141.47 40.6203C141.428 40.8343 141.326 41.0327 141.177 41.1939C141.027 41.3551 140.836 41.4729 140.623 41.5346C139.939 41.7192 139.281 41.9823 138.661 42.3183C138.488 42.4287 138.285 42.4855 138.079 42.4816C137.841 42.4764 137.609 42.4026 137.414 42.2693L136.183 41.4204L134.338 43.2326L135.203 44.4408C135.317 44.6283 135.377 44.8427 135.377 45.0612C135.377 45.2797 135.317 45.4941 135.203 45.6816C134.861 46.2871 134.587 46.9276 134.388 47.5918C134.33 47.8036 134.212 47.9948 134.047 48.1424C133.882 48.2901 133.677 48.388 133.457 48.4244L131.994 48.6856V51.2489L133.474 51.4938C133.691 51.5331 133.892 51.6323 134.054 51.7797C134.216 51.9272 134.332 52.1168 134.388 52.3265C134.582 52.9978 134.855 53.6444 135.203 54.253C135.321 54.4361 135.384 54.6485 135.384 54.8653C135.384 55.0821 135.321 55.2944 135.203 55.4775L134.338 56.6857L136.183 58.4979L137.414 57.649C137.611 57.5206 137.842 57.4523 138.079 57.453M141.836 61.7795C141.56 61.7803 141.292 61.686 141.08 61.513C140.867 61.34 140.723 61.0992 140.672 60.8326L140.423 59.3958H140.24C139.543 59.2002 138.868 58.9321 138.228 58.5958L138.079 58.4979L136.865 59.3306C136.669 59.4638 136.438 59.5377 136.2 59.5428C135.888 59.541 135.589 59.4177 135.369 59.1999L133.706 57.5673C133.51 57.3746 133.388 57.1199 133.364 56.8482C133.34 56.5764 133.414 56.305 133.573 56.0816L134.405 54.8898L134.321 54.7428C133.966 54.119 133.686 53.4558 133.49 52.7673V52.604L132.044 52.3429C131.772 52.2971 131.525 52.1594 131.346 51.9536C131.167 51.7479 131.067 51.487 131.063 51.2163V48.8653C131.063 48.5918 131.161 48.327 131.341 48.1178C131.52 47.9087 131.769 47.7686 132.044 47.7224L133.49 47.4611V47.2979C133.695 46.6123 133.974 45.95 134.321 45.3224L134.405 45.1591L133.573 43.9836C133.411 43.7613 133.335 43.4891 133.359 43.2165C133.383 42.9438 133.507 42.6889 133.706 42.4979L135.369 40.8653C135.479 40.7596 135.609 40.6764 135.751 40.6203C135.894 40.5643 136.046 40.5365 136.2 40.5387C136.437 40.5381 136.668 40.6062 136.865 40.7346L138.079 41.5673H138.245C138.874 41.2128 139.544 40.9332 140.24 40.7346H140.423L140.672 39.3142C140.726 39.049 140.871 38.8101 141.083 38.6376C141.295 38.4651 141.561 38.3697 141.836 38.3673H144.23C144.505 38.3727 144.769 38.4692 144.981 38.6412C145.192 38.8132 145.338 39.0504 145.394 39.3142L145.643 40.751H145.826C146.526 40.9479 147.201 41.2217 147.838 41.5673H147.988L149.201 40.7346C149.398 40.6062 149.63 40.5381 149.866 40.5387C150.02 40.5365 150.173 40.5643 150.315 40.6203C150.458 40.6764 150.588 40.7596 150.698 40.8653L152.36 42.4979C152.557 42.6906 152.678 42.9452 152.702 43.217C152.727 43.4887 152.653 43.7602 152.493 43.9836L151.645 45.1755L151.745 45.3387C152.101 45.9568 152.38 46.6146 152.576 47.2979V47.4775L154.023 47.7224C154.297 47.7686 154.546 47.9087 154.726 48.1178C154.905 48.327 155.004 48.5918 155.004 48.8653V51.2163C155 51.487 154.9 51.7479 154.721 51.9536C154.541 52.1594 154.295 52.2971 154.023 52.3429L152.576 52.604V52.7673C152.374 53.4539 152.096 54.1165 151.745 54.7428L151.662 54.906L152.493 56.0816C152.656 56.3038 152.732 56.576 152.708 56.8487C152.683 57.1213 152.56 57.3763 152.36 57.5673L150.698 59.1999C150.478 59.4177 150.179 59.541 149.866 59.5428C149.627 59.5429 149.395 59.4685 149.201 59.3306L147.988 58.4979L147.821 58.5958C147.183 58.9385 146.508 59.2122 145.81 59.4122H145.643L145.394 60.8326C145.344 61.0992 145.199 61.34 144.987 61.513C144.774 61.686 144.506 61.7803 144.23 61.7795H141.836ZM143.033 20.9632C142.652 20.9611 142.274 21.033 141.921 21.1748C141.568 21.3166 141.247 21.5255 140.977 21.7895C140.707 22.0535 140.492 22.3674 140.346 22.7131C140.199 23.0589 140.124 23.4296 140.124 23.804C140.124 24.5618 140.43 25.2885 140.976 25.8243C141.522 26.3601 142.262 26.6612 143.033 26.6612C143.415 26.6612 143.792 26.5872 144.144 26.4434C144.496 26.2996 144.816 26.0889 145.085 25.8234C145.354 25.5579 145.566 25.2427 145.711 24.8962C145.855 24.5496 145.928 24.1784 145.926 23.804C145.926 23.0506 145.621 22.328 145.079 21.7953C144.536 21.2625 143.8 20.9632 143.033 20.9632ZM119.924 34.0244C119.156 34.0244 118.421 34.3237 117.878 34.8565C117.336 35.3893 117.031 36.1118 117.031 36.8652C117.029 37.2397 117.102 37.6108 117.246 37.9574C117.391 38.3039 117.603 38.6191 117.872 38.8846C118.141 39.1502 118.461 39.3609 118.813 39.5046C119.165 39.6484 119.542 39.7224 119.924 39.7224C120.695 39.7224 121.435 39.4213 121.981 38.8855C122.527 38.3497 122.833 37.623 122.833 36.8652C122.829 36.1103 122.52 35.3878 121.975 34.8555C121.43 34.3232 120.692 34.0244 119.924 34.0244ZM166.126 34.0244C165.357 34.0287 164.622 34.3317 164.08 34.8671C163.538 35.4024 163.233 36.1266 163.233 36.8816C163.233 37.635 163.538 38.3575 164.081 38.8903C164.623 39.4231 165.359 39.7224 166.126 39.7224C166.895 39.7224 167.633 39.4236 168.178 38.8913C168.723 38.359 169.031 37.6365 169.036 36.8816C169.031 36.1251 168.723 35.4009 168.179 34.866C167.634 34.3311 166.897 34.0287 166.126 34.0244ZM166.126 60.1469C165.357 60.1512 164.622 60.4542 164.08 60.9895C163.538 61.5249 163.233 62.2491 163.233 63.004C163.233 63.759 163.538 64.4833 164.08 65.0186C164.622 65.554 165.357 65.8569 166.126 65.8612C166.897 65.8569 167.634 65.5545 168.179 65.0196C168.723 64.4847 169.031 63.7605 169.036 63.004C169.031 62.2476 168.723 61.5233 168.179 60.9884C167.634 60.4535 166.897 60.1512 166.126 60.1469ZM119.924 60.1469C119.155 60.1512 118.419 60.4542 117.877 60.9895C117.335 61.5249 117.031 62.2491 117.031 63.004C117.031 63.759 117.335 64.4833 117.877 65.0186C118.419 65.554 119.155 65.8569 119.924 65.8612C120.694 65.8569 121.431 65.5545 121.976 65.0196C122.521 64.4847 122.829 63.7605 122.833 63.004C122.829 62.2476 122.521 61.5233 121.976 60.9884C121.431 60.4535 120.694 60.1512 119.924 60.1469ZM134.887 33.8449C134.504 33.8349 134.127 33.9287 133.795 34.1159C133.464 34.3032 133.191 34.5765 133.008 34.906L124.812 48.849C124.615 49.1693 124.511 49.5361 124.511 49.9101C124.511 50.2841 124.615 50.651 124.812 50.9714L132.991 64.9142C133.176 65.2425 133.449 65.515 133.78 65.702C134.111 65.8891 134.488 65.9836 134.87 65.9755H151.28C151.659 65.9824 152.033 65.8872 152.361 65.7001C152.69 65.5131 152.96 65.2412 153.142 64.9142L161.355 50.9714C161.551 50.651 161.655 50.2841 161.655 49.9101C161.655 49.5361 161.551 49.1693 161.355 48.849L153.158 34.906C152.978 34.5778 152.708 34.3051 152.379 34.1178C152.051 33.9305 151.676 33.8361 151.296 33.8449H134.887ZM143.083 73.2571C142.702 73.255 142.324 73.3268 141.971 73.4686C141.618 73.6104 141.297 73.8193 141.027 74.0833C140.756 74.3473 140.542 74.6612 140.395 75.007C140.249 75.3527 140.174 75.7235 140.174 76.0979C140.174 76.8557 140.48 77.5824 141.026 78.1182C141.571 78.654 142.312 78.9551 143.083 78.9551C143.464 78.9551 143.842 78.881 144.194 78.7372C144.546 78.5935 144.866 78.3828 145.135 78.1172C145.403 77.8517 145.616 77.5366 145.761 77.1901C145.905 76.8435 145.978 76.4724 145.976 76.0979C145.976 75.3445 145.671 74.6219 145.129 74.0891C144.586 73.5564 143.85 73.2571 143.083 73.2571ZM143.083 80C142.035 79.9957 141.031 79.5849 140.29 78.8571C139.549 78.1293 139.131 77.1435 139.126 76.1143C139.128 75.2135 139.446 74.3409 140.028 73.6446C140.61 72.9482 141.419 72.471 142.318 72.2938H142.551V67.0693H134.887C134.316 67.0737 133.755 66.9237 133.265 66.6357C132.775 66.3478 132.376 65.9329 132.11 65.4367L128.103 58.6449L123.531 61.2571L123.631 61.4857C123.835 61.9729 123.942 62.4937 123.947 63.0204C123.943 64.0524 123.522 65.0407 122.777 65.769C122.033 66.4972 121.024 66.9061 119.974 66.9061C118.925 66.9018 117.922 66.491 117.18 65.7632C116.439 65.0354 116.021 64.0496 116.017 63.0204C116.017 61.9883 116.433 60.9983 117.175 60.267C117.916 59.5357 118.923 59.1226 119.974 59.1183C121.014 59.1208 122.011 59.5255 122.75 60.2448L122.9 60.3918L127.571 57.7469L123.881 51.4938C123.587 51.0189 123.432 50.4739 123.432 49.9183C123.432 49.3627 123.587 48.8178 123.881 48.3428L127.871 41.5346L123.282 38.9387L123.132 39.151C122.77 39.6444 122.296 40.0486 121.748 40.3318C121.2 40.6151 120.593 40.7698 119.974 40.7836C118.92 40.7836 117.909 40.3725 117.164 39.6408C116.419 38.909 116 37.9165 116 36.8816C116.004 35.8495 116.425 34.8612 117.17 34.133C117.914 33.4047 118.923 32.9958 119.974 32.9959C121.022 33.0002 122.026 33.4109 122.767 34.1387C123.508 34.8665 123.926 35.8523 123.93 36.8816C123.935 37.2128 123.891 37.5428 123.797 37.8611V38.0734L128.453 40.7183L132.143 34.4653C132.409 33.9691 132.809 33.5542 133.298 33.2662C133.788 32.9782 134.349 32.8282 134.92 32.8326H142.584V27.7061H142.352C141.451 27.5318 140.64 27.0554 140.057 26.3584C139.475 25.6614 139.158 24.7872 139.159 23.8856C139.164 22.8564 139.582 21.8706 140.323 21.1428C141.064 20.415 142.068 20.0043 143.116 20C144.167 20 145.176 20.4089 145.92 21.1371C146.665 21.8653 147.086 22.8536 147.09 23.8856C147.088 24.7887 146.767 25.6631 146.182 26.3598C145.597 27.0565 144.784 27.5323 143.881 27.7061H143.648V32.9306H151.329C151.902 32.9304 152.463 33.082 152.955 33.3693C153.446 33.6567 153.85 34.0692 154.123 34.5632L157.797 40.8326L162.452 38.1877V37.9754C162.367 37.6555 162.322 37.3265 162.319 36.9959C162.323 35.9638 162.744 34.9755 163.489 34.2473C164.233 33.519 165.242 33.1101 166.292 33.1102C167.269 33.1778 168.185 33.5966 168.866 34.2865C169.547 34.9764 169.945 35.8888 169.983 36.8489C169.983 37.881 169.567 38.871 168.825 39.6023C168.084 40.3336 167.077 40.7466 166.026 40.751C165.407 40.7396 164.798 40.5861 164.25 40.3026C163.701 40.0191 163.228 39.6135 162.868 39.1183L162.701 38.9224L158.113 41.5184L162.103 48.3102C162.396 48.7882 162.551 49.3358 162.551 49.8939C162.551 50.452 162.396 50.9994 162.103 51.4775L158.429 57.7306L163.084 60.3755L163.25 60.2285C163.983 59.5101 164.975 59.1052 166.01 59.102C167.063 59.1104 168.07 59.5238 168.816 60.2533C169.562 60.9828 169.987 61.9703 170 63.004C169.996 64.0333 169.577 65.0191 168.836 65.7469C168.095 66.4747 167.091 66.8855 166.043 66.8898C164.992 66.8898 163.984 66.4809 163.239 65.7527C162.495 65.0244 162.074 64.0361 162.07 63.004C162.073 62.4772 162.18 61.9561 162.385 61.4693L162.485 61.2407L157.897 58.6285L153.906 65.4203C153.641 65.9165 153.241 66.3314 152.752 66.6194C152.262 66.9074 151.701 67.0574 151.13 67.053H143.466V72.2775H143.698C144.598 72.4546 145.407 72.9319 145.989 73.6282C146.571 74.3246 146.889 75.1972 146.89 76.0979C146.886 77.13 146.465 78.1183 145.721 78.8466C144.976 79.5748 143.968 79.9837 142.917 79.9837" fill="white"/>
<path d="M87.6759 122C82.2359 122 80.3359 119.74 80.3359 116.08C80.3359 115 80.5559 113.76 80.8559 112.94L83.6759 112.48C83.2559 113.4 82.9959 114.72 82.9959 115.78C82.9959 118.6 84.2159 119.92 87.9559 119.92H90.6759V112.6H93.3159V119.92H95.2959V122H87.6759ZM89.0359 111.08C88.2759 111.08 87.6959 110.48 87.6959 109.72C87.6959 108.98 88.2759 108.36 89.0359 108.36C89.7759 108.36 90.3559 108.96 90.3559 109.72C90.3559 110.46 89.7759 111.08 89.0359 111.08ZM85.7159 111.08C84.9759 111.08 84.3959 110.48 84.3959 109.72C84.3959 108.98 84.9759 108.36 85.7159 108.36C86.4559 108.36 87.0359 108.96 87.0359 109.72C87.0359 110.46 86.4559 111.08 85.7159 111.08ZM87.3559 108.24C86.6759 108.24 86.1359 107.68 86.1359 106.98C86.1359 106.28 86.6759 105.72 87.3559 105.72C88.0559 105.72 88.5959 106.28 88.5959 106.98C88.5959 107.68 88.0559 108.24 87.3559 108.24ZM94.9805 122V119.92H97.4605V107.9H100.1V122H94.9805ZM103.497 122V107.9H106.137V119.92H108.137V122H103.497ZM107.832 122V119.92H110.632V112.6H113.272V119.92H115.232V122H107.832ZM113.232 111.08C112.472 111.08 111.892 110.48 111.892 109.72C111.892 108.98 112.472 108.36 113.232 108.36C113.972 108.36 114.552 108.96 114.552 109.72C114.552 110.46 113.972 111.08 113.232 111.08ZM109.912 111.08C109.172 111.08 108.592 110.48 108.592 109.72C108.592 108.98 109.172 108.36 109.912 108.36C110.652 108.36 111.232 108.96 111.232 109.72C111.232 110.46 110.652 111.08 109.912 111.08ZM111.552 108.24C110.872 108.24 110.332 107.68 110.332 106.98C110.332 106.28 110.872 105.72 111.552 105.72C112.252 105.72 112.792 106.28 112.792 106.98C112.792 107.68 112.252 108.24 111.552 108.24ZM114.941 122V119.92H117.421V107.9H120.061V122H114.941ZM123.458 122V107.9H126.098V122H123.458ZM134.176 127.08C133.556 127.08 132.996 127 132.496 126.88L132.716 124.78C133.176 124.92 133.696 125.02 134.336 125.02C135.676 125.02 136.476 124.38 136.476 122.22V112.6H139.116V122.08C139.116 124.64 138.256 127.08 134.176 127.08ZM144.585 127.04C143.085 127.04 141.545 126.78 141.545 126.78L141.705 124.62C141.705 124.62 143.265 124.96 144.825 124.96C146.905 124.96 148.285 124.18 148.285 122.3V122H146.725C142.825 122 141.365 120.2 141.365 117.36C141.365 114.74 142.985 112.34 146.665 112.34C149.025 112.34 150.845 113.04 150.845 113.04V119.92H152.825V122H150.845V122.04C150.845 124.8 149.065 127.04 144.585 127.04ZM148.285 119.92V114.78C148.285 114.78 147.525 114.42 146.385 114.42C144.885 114.42 144.005 115.56 144.005 117.12C144.005 118.94 144.905 119.92 147.005 119.92H148.285ZM152.5 122V119.92H160.24C160.3 119.44 160.34 118.9 160.34 118.4C160.34 115.86 159.3 114.56 156.42 114.56C155.6 114.56 154.86 114.62 154.12 114.72V112.66C154.9 112.56 155.82 112.48 156.68 112.48C161.18 112.48 162.96 114.46 162.96 118.3C162.96 118.78 162.94 119.34 162.88 119.92H164.44V122H152.5ZM171.201 122C168.841 122 167.681 121.44 167.081 120.46C166.581 121.5 165.641 122 164.441 122H164.141V119.92H164.541C165.501 119.92 166.041 119.34 166.041 117.52C166.041 114.66 167.781 112.34 171.141 112.34C174.361 112.34 175.761 114.18 175.761 117.1V119.92H177.461V122H171.201ZM173.181 119.92V117.4C173.181 115.3 172.421 114.42 170.961 114.42C169.501 114.42 168.641 115.58 168.641 117.28C168.641 119.04 169.401 119.92 171.461 119.92H173.181ZM177.148 122V119.92H179.628V107.9H182.268V122H177.148ZM185.665 122V107.9H188.305V122H185.665Z" fill="white"/>
<path d="M35.1128 149H29.6408C26.1308 149 24.8168 147.38 24.8168 144.824C24.8168 142.466 26.2748 140.306 29.5868 140.306C31.7108 140.306 33.3488 140.936 33.3488 140.936V147.128H35.1128V149ZM31.0448 147.128V142.502C31.0448 142.502 30.3608 142.178 29.3348 142.178C27.9848 142.178 27.1928 143.204 27.1928 144.608C27.1928 146.246 28.0028 147.128 29.8928 147.128H31.0448ZM30.8468 139.172C30.1808 139.172 29.6588 138.632 29.6588 137.948C29.6588 137.282 30.1808 136.724 30.8468 136.724C31.5128 136.724 32.0348 137.264 32.0348 137.948C32.0348 138.614 31.5128 139.172 30.8468 139.172ZM27.8588 139.172C27.1928 139.172 26.6708 138.632 26.6708 137.948C26.6708 137.282 27.1928 136.724 27.8588 136.724C28.5428 136.724 29.0648 137.264 29.0648 137.948C29.0648 138.614 28.5428 139.172 27.8588 139.172ZM34.8379 149V147.128H38.2219V140.54H40.5979V147.128H42.3799V149H34.8379ZM37.5739 151.7C37.5739 152.366 37.0519 152.924 36.3679 152.924C35.7019 152.924 35.1799 152.384 35.1799 151.7C35.1799 151.034 35.7019 150.476 36.3679 150.476C37.0519 150.476 37.5739 151.016 37.5739 151.7ZM40.5439 151.7C40.5439 152.366 40.0219 152.924 39.3559 152.924C38.6899 152.924 38.1679 152.384 38.1679 151.7C38.1679 151.034 38.6899 150.476 39.3559 150.476C40.0219 150.476 40.5439 151.016 40.5439 151.7ZM42.0977 149V147.128H44.3297V136.31H46.7057V147.128H48.5237V149H42.0977ZM48.2324 149V147.128H51.6164V140.54H53.9924V147.128H55.7744V149H48.2324ZM50.9684 151.7C50.9684 152.366 50.4464 152.924 49.7624 152.924C49.0964 152.924 48.5744 152.384 48.5744 151.7C48.5744 151.034 49.0964 150.476 49.7624 150.476C50.4464 150.476 50.9684 151.016 50.9684 151.7ZM53.9384 151.7C53.9384 152.366 53.4164 152.924 52.7504 152.924C52.0844 152.924 51.5624 152.384 51.5624 151.7C51.5624 151.034 52.0844 150.476 52.7504 150.476C53.4164 150.476 53.9384 151.016 53.9384 151.7ZM55.4922 149V147.128H56.1222C57.8322 147.128 59.2182 146.93 60.3162 146.57C59.1642 145.49 58.1022 144.374 56.5362 143.942L56.7342 142.25C58.1562 141.224 60.1542 140.252 61.9362 140.252C64.6182 140.252 65.7342 141.638 65.7342 143.204C65.7342 144.41 65.1042 145.652 63.8982 146.66C64.4922 146.948 65.1402 147.128 65.8962 147.128H67.0842V149H65.6262C64.0602 149 62.8902 148.532 61.9182 147.884C60.3882 148.568 58.3902 149 55.9782 149H55.4922ZM58.9302 143.078C60.1722 143.582 61.1622 144.644 62.2602 145.562C63.0162 144.968 63.3762 144.248 63.3762 143.51C63.3762 142.664 62.8182 141.998 61.6662 141.998C60.6942 141.998 59.5782 142.646 58.9302 143.078ZM61.6482 138.92C60.9642 138.92 60.4062 138.38 60.4062 137.678C60.4062 136.994 60.9642 136.436 61.6482 136.436C62.3322 136.436 62.8902 136.994 62.8902 137.678C62.8902 138.362 62.3322 138.92 61.6482 138.92ZM66.8125 149V147.128H67.3885C68.5585 147.128 69.0085 146.66 69.0085 144.878V141.62H71.3845V145.184C71.3845 146.534 71.6905 147.272 72.7525 147.272C73.7965 147.272 74.0845 146.498 74.0845 145.202V140.9H76.3525V145.13C76.3525 146.624 76.7485 147.128 78.3325 147.128H78.9625C79.0345 146.408 79.0885 145.526 79.0885 144.968C79.0885 143.168 78.8725 141.512 78.5665 140.144L80.8885 139.82C81.2305 141.26 81.4645 143.024 81.4645 144.806C81.4645 145.526 81.4285 146.336 81.3745 147.128H83.1385V149H77.8465C76.2805 149 75.3265 148.64 74.9305 147.668C74.4985 148.676 73.4545 149.162 72.3205 149.162C71.0065 149.162 70.0705 148.604 69.7645 147.668C69.4405 148.532 68.7025 149 67.3705 149H66.8125ZM76.6225 139.172C75.9385 139.172 75.4165 138.632 75.4165 137.948C75.4165 137.282 75.9385 136.724 76.6225 136.724C77.2885 136.724 77.8105 137.264 77.8105 137.948C77.8105 138.614 77.2885 139.172 76.6225 139.172ZM73.6345 139.172C72.9685 139.172 72.4465 138.632 72.4465 137.948C72.4465 137.282 72.9685 136.724 73.6345 136.724C74.3005 136.724 74.8225 137.264 74.8225 137.948C74.8225 138.614 74.3005 139.172 73.6345 139.172ZM75.1105 136.616C74.4985 136.616 74.0125 136.112 74.0125 135.482C74.0125 134.852 74.4985 134.348 75.1105 134.348C75.7405 134.348 76.2265 134.852 76.2265 135.482C76.2265 136.112 75.7405 136.616 75.1105 136.616ZM82.8613 149V147.128H85.3813V140.54H87.7573V149H82.8613ZM87.7213 139.172C87.0553 139.172 86.5333 138.632 86.5333 137.948C86.5333 137.282 87.0553 136.724 87.7213 136.724C88.3873 136.724 88.9093 137.264 88.9093 137.948C88.9093 138.614 88.3873 139.172 87.7213 139.172ZM84.7333 139.172C84.0673 139.172 83.5453 138.632 83.5453 137.948C83.5453 137.282 84.0673 136.724 84.7333 136.724C85.4173 136.724 85.9393 137.264 85.9393 137.948C85.9393 138.614 85.4173 139.172 84.7333 139.172ZM104.459 149H98.9865C95.4765 149 94.1625 147.38 94.1625 144.824C94.1625 142.466 95.6205 140.306 98.9325 140.306C101.057 140.306 102.695 140.936 102.695 140.936V147.128H104.459V149ZM100.391 147.128V142.502C100.391 142.502 99.7065 142.178 98.6805 142.178C97.3305 142.178 96.5385 143.204 96.5385 144.608C96.5385 146.246 97.3485 147.128 99.2385 147.128H100.391ZM100.193 139.172C99.5265 139.172 99.0045 138.632 99.0045 137.948C99.0045 137.282 99.5265 136.724 100.193 136.724C100.859 136.724 101.381 137.264 101.381 137.948C101.381 138.614 100.859 139.172 100.193 139.172ZM97.2045 139.172C96.5385 139.172 96.0165 138.632 96.0165 137.948C96.0165 137.282 96.5385 136.724 97.2045 136.724C97.8885 136.724 98.4105 137.264 98.4105 137.948C98.4105 138.614 97.8885 139.172 97.2045 139.172ZM114.642 149H110.538C108.414 149 107.37 148.496 106.83 147.614C106.38 148.55 105.534 149 104.454 149H104.184V147.128H104.544C105.408 147.128 105.894 146.606 105.894 144.968C105.894 142.394 107.46 140.306 110.484 140.306C113.382 140.306 114.642 141.962 114.642 144.59V149ZM112.32 147.128V144.86C112.32 142.97 111.636 142.178 110.322 142.178C109.008 142.178 108.234 143.222 108.234 144.752C108.234 146.336 108.918 147.128 110.772 147.128H112.32ZM119.473 153.536C118.123 153.536 116.737 153.302 116.737 153.302L116.881 151.358C116.881 151.358 118.285 151.664 119.689 151.664C121.561 151.664 122.803 150.962 122.803 149.27V149H121.399C117.889 149 116.575 147.38 116.575 144.824C116.575 142.466 118.033 140.306 121.345 140.306C123.469 140.306 125.107 140.936 125.107 140.936V147.128H126.889V149H125.107V149.036C125.107 151.52 123.505 153.536 119.473 153.536ZM122.803 147.128V142.502C122.803 142.502 122.119 142.178 121.093 142.178C119.743 142.178 118.951 143.204 118.951 144.608C118.951 146.246 119.761 147.128 121.651 147.128H122.803ZM126.596 149V147.128H128.792V136.31H131.168V140.99C131.168 141.782 131.114 142.79 130.97 143.654H130.988C131.87 141.53 133.688 140.306 135.614 140.306C138.098 140.306 139.268 141.962 139.268 144.662C139.268 145.472 139.25 146.318 139.196 147.128H140.852V149H126.596ZM131.15 147.128H136.748C136.802 146.408 136.838 145.58 136.838 144.932C136.838 143.24 136.406 142.214 135.128 142.214C133.202 142.214 131.6 144.608 131.15 147.128ZM135.308 139.028C134.624 139.028 134.066 138.488 134.066 137.786C134.066 137.102 134.624 136.544 135.308 136.544C135.992 136.544 136.55 137.102 136.55 137.786C136.55 138.47 135.992 139.028 135.308 139.028ZM140.588 149V147.128H143.108V140.54H145.484V147.128H147.248V149H140.588ZM144.296 139.028C143.612 139.028 143.054 138.488 143.054 137.786C143.054 137.102 143.612 136.544 144.296 136.544C144.98 136.544 145.538 137.102 145.538 137.786C145.538 138.47 144.98 139.028 144.296 139.028ZM157.444 149H153.34C151.216 149 150.172 148.496 149.632 147.614C149.182 148.55 148.336 149 147.256 149H146.986V147.128H147.346C148.21 147.128 148.696 146.606 148.696 144.968C148.696 142.394 150.262 140.306 153.286 140.306C156.184 140.306 157.444 141.962 157.444 144.59V149ZM155.122 147.128V144.86C155.122 142.97 154.438 142.178 153.124 142.178C151.81 142.178 151.036 143.222 151.036 144.752C151.036 146.336 151.72 147.128 153.574 147.128H155.122ZM163.844 149V147.146C164.474 147.146 165.104 147.182 165.5 147.254C165.104 147.056 164.87 146.588 164.87 146.03C164.87 144.518 165.95 143.024 168.776 143.024C169.496 143.024 170.198 143.114 170.396 143.15L170.108 145.022C169.946 144.986 169.316 144.878 168.668 144.878C167.732 144.878 167.246 145.328 167.246 145.94C167.246 146.642 167.786 147.146 169.298 147.146H170.9V149H163.844ZM173.477 149V136.31H175.853V147.128H177.653V149H173.477ZM177.379 149V147.128H179.899V140.54H182.275V147.128H184.039V149H177.379ZM181.087 139.028C180.403 139.028 179.845 138.488 179.845 137.786C179.845 137.102 180.403 136.544 181.087 136.544C181.771 136.544 182.329 137.102 182.329 137.786C182.329 138.47 181.771 139.028 181.087 139.028ZM183.777 149V147.128H186.297V140.54H188.673V149H183.777ZM186.153 152.942C185.469 152.942 184.911 152.402 184.911 151.7C184.911 151.016 185.469 150.458 186.153 150.458C186.837 150.458 187.395 150.998 187.395 151.7C187.395 152.384 186.837 152.942 186.153 152.942ZM66.1586 175.572C65.6006 175.572 65.0966 175.5 64.6466 175.392L64.8446 173.502C65.2586 173.628 65.7266 173.718 66.3026 173.718C67.5086 173.718 68.2286 173.142 68.2286 171.198V162.54H70.6046V169.128H72.3866V171H70.6046V171.072C70.6046 173.376 69.8306 175.572 66.1586 175.572ZM69.4166 161.028C68.7326 161.028 68.1746 160.488 68.1746 159.786C68.1746 159.102 68.7326 158.544 69.4166 158.544C70.1006 158.544 70.6586 159.102 70.6586 159.786C70.6586 160.47 70.1006 161.028 69.4166 161.028ZM72.1211 171V169.128H75.5051V162.54H77.8811V169.128H79.6631V171H72.1211ZM74.8571 173.7C74.8571 174.366 74.3351 174.924 73.6511 174.924C72.9851 174.924 72.4631 174.384 72.4631 173.7C72.4631 173.034 72.9851 172.476 73.6511 172.476C74.3351 172.476 74.8571 173.016 74.8571 173.7ZM77.8271 173.7C77.8271 174.366 77.3051 174.924 76.6391 174.924C75.9731 174.924 75.4511 174.384 75.4511 173.7C75.4511 173.034 75.9731 172.476 76.6391 172.476C77.3051 172.476 77.8271 173.016 77.8271 173.7ZM85.7349 171C83.6109 171 82.5669 170.496 82.0269 169.614C81.5769 170.55 80.7309 171 79.6509 171H79.3809V169.128H79.7409C80.6049 169.128 81.0909 168.606 81.0909 166.968C81.0909 164.394 82.6569 162.306 85.6809 162.306C88.5789 162.306 89.8389 163.962 89.8389 166.59V169.128H91.3689V171H85.7349ZM87.5169 169.128V166.86C87.5169 164.97 86.8329 164.178 85.5189 164.178C84.2049 164.178 83.4309 165.222 83.4309 166.752C83.4309 168.336 84.1149 169.128 85.9689 169.128H87.5169ZM91.0879 171V169.128H93.6079V162.54H95.9839V171H91.0879ZM95.9479 161.172C95.2819 161.172 94.7599 160.632 94.7599 159.948C94.7599 159.282 95.2819 158.724 95.9479 158.724C96.6139 158.724 97.1359 159.264 97.1359 159.948C97.1359 160.614 96.6139 161.172 95.9479 161.172ZM92.9599 161.172C92.2939 161.172 91.7719 160.632 91.7719 159.948C91.7719 159.282 92.2939 158.724 92.9599 158.724C93.6439 158.724 94.1659 159.264 94.1659 159.948C94.1659 160.614 93.6439 161.172 92.9599 161.172ZM100.893 175.536C99.5425 175.536 98.1565 175.302 98.1565 175.302L98.3005 173.358C98.3005 173.358 99.7045 173.664 101.109 173.664C102.981 173.664 104.223 172.962 104.223 171.27V171H102.819C99.3085 171 97.9945 169.38 97.9945 166.824C97.9945 164.466 99.4525 162.306 102.765 162.306C104.889 162.306 106.527 162.936 106.527 162.936V171.036C106.527 173.52 104.925 175.536 100.893 175.536ZM104.223 169.128V164.502C104.223 164.502 103.539 164.178 102.513 164.178C101.163 164.178 100.371 165.204 100.371 166.608C100.371 168.246 101.181 169.128 103.071 169.128H104.223ZM121.702 171H117.76C114.25 171 112.936 169.38 112.936 166.842C112.936 164.394 114.502 162.306 117.634 162.306C120.442 162.306 121.702 163.926 121.702 166.446V171ZM119.38 169.128V166.734C119.38 164.934 118.66 164.178 117.454 164.178C116.104 164.178 115.312 165.204 115.312 166.608C115.312 168.3 116.14 169.128 118.012 169.128H119.38ZM118.966 161.172C118.3 161.172 117.778 160.632 117.778 159.948C117.778 159.282 118.3 158.724 118.966 158.724C119.632 158.724 120.154 159.264 120.154 159.948C120.154 160.614 119.632 161.172 118.966 161.172ZM115.978 161.172C115.312 161.172 114.79 160.632 114.79 159.948C114.79 159.282 115.312 158.724 115.978 158.724C116.662 158.724 117.184 159.264 117.184 159.948C117.184 160.614 116.662 161.172 115.978 161.172ZM123.695 171V169.146C124.325 169.146 124.955 169.182 125.351 169.254C124.955 169.056 124.721 168.588 124.721 168.03C124.721 166.518 125.801 165.024 128.627 165.024C129.347 165.024 130.049 165.114 130.247 165.15L129.959 167.022C129.797 166.986 129.167 166.878 128.519 166.878C127.583 166.878 127.097 167.328 127.097 167.94C127.097 168.642 127.637 169.146 129.149 169.146H130.751V171H123.695ZM133.329 171V158.31H135.705V169.128H137.505V171H133.329ZM142.666 160.956C141.982 160.956 141.424 160.416 141.424 159.714C141.424 159.03 141.982 158.472 142.666 158.472C143.35 158.472 143.908 159.03 143.908 159.714C143.908 160.398 143.35 160.956 142.666 160.956ZM137.23 171V169.128H137.986C138.544 169.128 139.084 169.218 139.084 169.218C138.544 168.66 138.256 167.814 138.256 166.788C138.256 164.196 140.11 162.306 142.828 162.306C145.384 162.306 147.022 163.638 147.022 166.5C147.022 167.544 146.662 168.642 145.978 169.218C145.978 169.218 146.734 169.128 147.346 169.128H148.3V171H137.23ZM142.63 169.128C143.764 169.128 144.628 168.3 144.628 166.626C144.628 165.042 144.016 164.178 142.666 164.178C141.64 164.178 140.632 164.898 140.632 166.59C140.632 168.282 141.298 169.128 142.63 169.128ZM148.023 171V169.128H153.369C153.261 166.338 151.821 164.718 148.959 164.052V162.306L156.087 157.842V160.2L151.695 162.846C154.107 163.926 155.691 165.888 155.691 169.794V171H148.023ZM173.842 171H168.766C163.87 171 162.16 168.966 162.16 165.672C162.16 164.7 162.358 163.584 162.628 162.846L165.166 162.432C164.788 163.26 164.554 164.448 164.554 165.402C164.554 167.94 165.652 169.128 169.018 169.128H171.466V162.54H173.842V171ZM169.99 161.172C169.324 161.172 168.802 160.632 168.802 159.948C168.802 159.282 169.324 158.724 169.99 158.724C170.656 158.724 171.178 159.264 171.178 159.948C171.178 160.614 170.656 161.172 169.99 161.172ZM167.002 161.172C166.336 161.172 165.814 160.632 165.814 159.948C165.814 159.282 166.336 158.724 167.002 158.724C167.686 158.724 168.208 159.264 168.208 159.948C168.208 160.614 167.686 161.172 167.002 161.172ZM176.712 171V158.31H179.088V171H176.712ZM181.441 171V169.128H186.787C186.679 166.464 185.365 164.808 182.539 164.088L183.115 162.108C187.021 163.134 189.109 165.348 189.109 169.812V171H181.441ZM184.177 161.028C183.493 161.028 182.935 160.488 182.935 159.786C182.935 159.102 183.493 158.544 184.177 158.544C184.861 158.544 185.419 159.102 185.419 159.786C185.419 160.47 184.861 161.028 184.177 161.028Z" fill="white"/>
</svg>
