<svg width="64" height="64" viewBox="0 0 64 64" fill="none" xmlns="http://www.w3.org/2000/svg">
<mask id="mask0_1716_3122" style="mask-type:luminance" maskUnits="userSpaceOnUse" x="1" y="0" width="62" height="64">
<path d="M62.2664 0H1.73438V64H62.2664V0Z" fill="white"/>
</mask>
<g mask="url(#mask0_1716_3122)">
<path d="M23.5984 35.5468V23.4562H15.8112V48.2837H23.5984V39.0305C23.5984 38.6522 23.8979 38.3527 24.2762 38.3527C24.6546 38.3527 24.9541 38.6522 24.9541 39.0305V48.9616C24.9541 49.3399 24.6546 49.6394 24.2762 49.6394H15.1334C14.7551 49.6394 14.4556 49.3399 14.4556 48.9616V22.7783C14.4556 22.4 14.7551 22.1005 15.1334 22.1005H24.2762C24.6546 22.1005 24.9541 22.4 24.9541 22.7783V35.5468C24.9541 35.9251 24.6546 36.2246 24.2762 36.2246C23.8979 36.2246 23.5984 35.9251 23.5984 35.5468ZM2.33339 24.3704C2.06541 24.1025 2.06541 23.6768 2.33339 23.4089L17.2772 8.49655C17.4979 8.27586 17.829 8.22857 18.0969 8.38621L33.7186 17.403L49.7501 1.35567H45.8881C45.5097 1.35567 45.2102 1.05616 45.2102 0.677833C45.2102 0.299507 45.5097 0 45.8881 0H51.4053C51.4841 0 51.5629 0.0157635 51.6418 0.0472906C51.7206 0.0788177 51.7994 0.126108 51.8625 0.189163C51.8625 0.189163 51.9728 0.331035 52.0043 0.394089C52.0359 0.472906 52.0516 0.567488 52.0516 0.662069V6.17931C52.0516 6.55764 51.7521 6.85714 51.3738 6.85714C50.9955 6.85714 50.696 6.55764 50.696 6.17931V2.333L34.2861 18.7429C34.0654 18.9635 33.7344 19.0108 33.4664 18.8532L17.8447 9.83645L3.29497 24.3704C3.16886 24.4966 2.99546 24.5754 2.8063 24.5754C2.61713 24.5754 2.4595 24.5123 2.31763 24.3704H2.33339ZM3.1058 38.0532H10.9088V48.2837H3.1058V38.0532ZM11.5866 49.6394C11.9649 49.6394 12.2644 49.3399 12.2644 48.9616V37.3596C12.2644 36.9813 11.9649 36.6818 11.5866 36.6818H2.41221C2.03388 36.6818 1.73438 36.9813 1.73438 37.3596V48.9616C1.73438 49.3399 2.03388 49.6394 2.41221 49.6394H11.5866ZM42.2467 62.6443C41.159 62.6443 40.2605 61.7616 40.2605 60.6581C40.2605 59.5547 41.1432 58.6562 42.2467 58.6562C42.6093 58.6562 42.9403 58.7665 43.224 58.9241C43.823 59.2709 44.2171 59.9015 44.2171 60.6424C44.2171 61.7301 43.3186 62.6286 42.2152 62.6286L42.2467 62.6443ZM48.2368 50.2857C47.9216 50.0966 47.496 50.2069 47.3068 50.5379L43.2871 57.4739C42.9561 57.3635 42.6093 57.2847 42.2467 57.2847C40.4024 57.2847 38.9048 58.798 38.9048 60.6424C38.9048 62.4867 40.4024 63.9842 42.2467 63.9842C44.091 63.9842 45.6043 62.4867 45.6043 60.6424C45.6043 59.6493 45.1629 58.7507 44.4694 58.136L48.4891 51.2C48.6782 50.8847 48.5679 50.4591 48.2368 50.27V50.2857ZM37.1708 41.3005C35.4526 41.7576 33.829 42.4355 32.3314 43.2867C32.2999 43.2867 32.2684 43.2867 32.2368 43.3182C32.2053 43.3498 32.1895 43.3655 32.1738 43.3813C31.1807 43.9645 30.2506 44.6266 29.3679 45.3675V30.6286H37.1708V41.2847V41.3005ZM59.6024 50.7113C59.6024 50.7113 59.6024 50.664 59.5708 50.6483C59.5708 50.6325 59.5393 50.6167 59.5235 50.601C57.7738 47.6059 55.2831 45.1153 52.2881 43.3655C52.2723 43.3498 52.2565 43.334 52.2408 43.3182C52.225 43.3182 52.1935 43.3182 52.1777 43.3025C52.1462 43.2709 52.0989 43.2552 52.0674 43.2394V16.599C52.0674 16.2207 51.7679 15.9212 51.3895 15.9212H42.2467C41.8684 15.9212 41.5689 16.2207 41.5689 16.599V38.3054C41.5689 38.6837 41.8684 38.9833 42.2467 38.9833C42.625 38.9833 42.9245 38.6837 42.9245 38.3054V17.2768H50.7117V42.5143C48.1423 41.3005 45.2733 40.6227 42.2467 40.6227C40.9698 40.6227 39.7403 40.7488 38.5265 40.9695V29.935C38.5265 29.5567 38.227 29.2571 37.8487 29.2571H28.69C28.3117 29.2571 28.0122 29.5567 28.0122 29.935V46.6128C26.8457 47.8108 25.8211 49.135 24.9856 50.5852C24.9856 50.601 24.9541 50.6167 24.9541 50.6325C24.9541 50.6483 24.9541 50.664 24.9383 50.6956C24.3078 51.799 23.7718 52.9655 23.362 54.1951H2.64866C2.27034 54.1951 1.97083 54.4946 1.97083 54.8729C1.97083 55.2512 2.27034 55.5507 2.64866 55.5507H22.9048C22.4792 57.1744 22.2428 58.8769 22.2428 60.6424C22.2428 61.0207 22.5423 61.3202 22.9206 61.3202H25.695C26.0733 61.3202 26.3728 61.0207 26.3728 60.6424C26.3728 60.264 26.0733 59.9645 25.695 59.9645H23.6142C23.7245 57.064 24.4812 54.3369 25.7738 51.9094L27.5866 52.9498C27.6969 53.0128 27.8073 53.0443 27.9334 53.0443C28.1698 53.0443 28.4063 52.9182 28.5166 52.6975C28.7058 52.3665 28.5955 51.9567 28.2644 51.7675L26.4674 50.7271C27.9649 48.3468 29.9827 46.3291 32.3472 44.8315L33.4033 46.6286C33.5294 46.8493 33.7659 46.9596 33.9866 46.9596C34.1127 46.9596 34.223 46.9281 34.3334 46.865C34.6644 46.6759 34.7748 46.2502 34.5856 45.935L33.5294 44.1379C35.9413 42.8453 38.6684 42.0887 41.5689 41.9783V44.0591C41.5689 44.4374 41.8684 44.7369 42.2467 44.7369C42.625 44.7369 42.9245 44.4374 42.9245 44.0591V41.9783C45.825 42.0887 48.5521 42.8453 50.9639 44.1379L49.9235 45.935C49.7344 46.266 49.8447 46.6759 50.1758 46.865C50.2861 46.9281 50.3964 46.9596 50.5226 46.9596C50.759 46.9596 50.9955 46.8335 51.1058 46.6128L52.1462 44.8158C54.5265 46.3133 56.5442 48.331 58.0418 50.7113L56.2447 51.7517C55.9137 51.9409 55.8033 52.3507 55.9925 52.6818C56.1186 52.9025 56.3393 53.0286 56.5758 53.0286C56.6861 53.0286 56.8122 52.997 56.9226 52.934L58.7196 51.8936C59.9964 54.3054 60.7689 57.0483 60.8792 59.933H58.7826C58.4043 59.933 58.1048 60.2325 58.1048 60.6108C58.1048 60.9892 58.4043 61.2887 58.7826 61.2887H61.5886C61.9669 61.2887 62.2664 60.9892 62.2664 60.6108C62.2664 57.001 61.2891 53.6118 59.6181 50.6798L59.6024 50.7113Z" fill="#FCB44A"/>
</g>
</svg>
