<svg width="64" height="64" viewBox="0 0 64 64" fill="none" xmlns="http://www.w3.org/2000/svg">
<mask id="mask0_1716_3136" style="mask-type:luminance" maskUnits="userSpaceOnUse" x="3" y="0" width="58" height="64">
<path d="M60.2744 0H3.72266V64H60.2744V0Z" fill="white"/>
</mask>
<g mask="url(#mask0_1716_3136)">
<path d="M31.9913 27.2232C29.3633 27.2232 27.2145 29.3721 27.2145 32C27.2145 34.6279 29.3633 36.7768 31.9913 36.7768C34.6192 36.7768 36.768 34.6279 36.768 32C36.768 29.3721 34.6192 27.2232 31.9913 27.2232ZM31.9913 37.7641C28.8116 37.7641 26.2272 35.1797 26.2272 32C26.2272 28.8203 28.8116 26.2359 31.9913 26.2359C35.1709 26.2359 37.7553 28.8203 37.7553 32C37.7553 35.1797 35.1709 37.7641 31.9913 37.7641ZM26.808 40.0436C27.0112 40.0436 27.2145 40.1016 27.3887 40.1887C28.0276 40.5517 28.7245 40.8421 29.4504 41.0454C29.886 41.1615 30.2054 41.5245 30.2925 41.9601L30.5829 43.5572H33.4141L33.69 41.9601C33.7771 41.51 34.0965 41.1615 34.5321 41.0454C35.2435 40.8421 35.9259 40.5662 36.5938 40.1887C36.768 40.0871 36.9713 40.029 37.1746 40.029C37.4069 40.029 37.6392 40.1016 37.8424 40.2468L39.1782 41.176L41.1673 39.1869L40.2381 37.8512C39.9767 37.4737 39.9622 36.9946 40.18 36.6025C40.543 35.9637 40.8188 35.2668 41.0366 34.5408C41.1528 34.1053 41.5158 33.7858 41.9658 33.6987L43.5629 33.4083V30.5771L41.9658 30.3013C41.5158 30.2142 41.1673 29.8947 41.0511 29.4592C40.8479 28.7477 40.572 28.0653 40.1945 27.3975C39.9622 27.0054 39.9913 26.5263 40.2526 26.1488L41.1818 24.8131L39.1927 22.824L37.857 23.7532C37.6537 23.8838 37.4214 23.9564 37.1891 23.9564C36.9858 23.9564 36.7825 23.8984 36.6083 23.8113C35.9695 23.4483 35.2726 23.1579 34.5466 22.9546C34.111 22.8385 33.7916 22.4755 33.7045 22.0254L33.4141 20.4283H30.5829L30.307 22.0254C30.2199 22.4755 29.9005 22.824 29.4649 22.9401C28.7535 23.1434 28.0711 23.4192 27.4032 23.7967C27.229 23.8984 27.0257 23.9564 26.8225 23.9564C26.5902 23.9564 26.3579 23.8838 26.1546 23.7387L24.8188 22.8094L22.8297 24.7985L23.759 26.1343C24.0203 26.5118 24.0348 26.9909 23.817 27.3829C23.4541 28.0218 23.1637 28.7187 22.9604 29.4446C22.8443 29.8802 22.4813 30.1996 22.0457 30.2868L20.4486 30.5771V33.4083L22.0457 33.6842C22.4958 33.7713 22.8443 34.0907 22.9604 34.5263C23.1637 35.2378 23.4395 35.9347 23.817 36.588C24.0493 36.98 24.0203 37.4592 23.759 37.8367L22.8297 39.1724L24.8188 41.1615L26.1546 40.2323C26.3579 40.1016 26.5902 40.029 26.8225 40.029M30.7426 44.5299C30.1764 44.5299 29.6972 44.1234 29.5956 43.5717L29.3197 42.0182L29.102 41.9601C28.3615 41.7423 27.6646 41.4664 27.0112 41.1034L26.808 41.0018L25.5158 41.902C25.3125 42.0472 25.0802 42.1198 24.8479 42.1198C24.543 42.1198 24.2381 42.0036 24.0203 41.7713L22.249 40C21.857 39.5935 21.7989 38.9691 22.1183 38.5045L23.0185 37.1978L22.9023 36.9946C22.5248 36.3122 22.2345 35.6298 22.0312 34.9183L21.9731 34.7005L20.4196 34.4247C19.8533 34.323 19.4613 33.8439 19.4613 33.2777V30.7804C19.4613 30.2142 19.8678 29.735 20.4196 29.6334L21.9731 29.3575L22.0312 29.1397C22.249 28.3993 22.5248 27.7169 22.8878 27.049L22.9894 26.8457L22.0893 25.5535C21.7553 25.0889 21.8134 24.4646 22.2199 24.0581L23.9913 22.2868C24.209 22.069 24.5139 21.9383 24.8188 21.9383C25.0511 21.9383 25.2835 22.0109 25.4867 22.1416L26.7934 23.0417L26.9967 22.9256C27.6791 22.5481 28.3615 22.2577 29.0874 22.0544L29.3052 21.9964L29.5811 20.4428C29.6827 19.8766 30.1619 19.4846 30.7281 19.4846H33.2254C33.7916 19.4846 34.2707 19.8911 34.3724 20.4573L34.6482 22.0109L34.866 22.069C35.6065 22.2868 36.2889 22.5626 36.9568 22.9256L37.16 23.0417L38.4522 22.1416C38.6555 22.0109 38.8878 21.9238 39.1201 21.9238C39.4395 21.9238 39.7299 22.0399 39.9477 22.2722L41.719 24.0436C42.111 24.4501 42.1691 25.0744 41.8497 25.539L40.9495 26.8457L41.0657 27.049C41.4432 27.7314 41.7335 28.4138 41.9368 29.1252L41.9949 29.343L43.5484 29.6189C44.1147 29.7205 44.5067 30.1996 44.5067 30.7659V33.2632C44.5067 33.8294 44.1001 34.3085 43.5484 34.4102L41.9949 34.686L41.9368 34.9038C41.719 35.6443 41.4432 36.3412 41.0802 36.9946L40.964 37.1978L41.8642 38.49C42.1982 38.9546 42.1401 39.5935 41.7335 39.9855L39.9622 41.7568C39.7444 41.9746 39.4395 42.1053 39.1346 42.1053C38.8878 42.1053 38.67 42.0327 38.4668 41.902L37.16 41.0018L36.9568 41.118C36.2744 41.4955 35.592 41.7858 34.866 41.9891L34.6482 42.0472L34.3724 43.6007C34.2707 44.167 33.7916 44.559 33.2254 44.559H30.7281L30.7426 44.5299ZM31.9913 0.987296C30.278 0.987296 28.8987 2.38113 28.8987 4.07985C28.8987 5.77858 30.2925 7.17241 31.9913 7.17241C33.69 7.17241 35.0838 5.77858 35.0838 4.07985C35.0838 2.38113 33.69 0.987296 31.9913 0.987296ZM7.81703 14.9401C6.10378 14.9401 4.72447 16.3339 4.72447 18.0327C4.72447 19.7314 6.1183 21.1252 7.81703 21.1252C9.51576 21.1252 10.9096 19.7314 10.9096 18.0327C10.9096 16.3339 9.51576 14.9401 7.81703 14.9401ZM56.151 14.9401C54.4377 14.9401 53.0584 16.3339 53.0584 18.0327C53.0584 19.7314 54.4522 21.1252 56.151 21.1252C57.8497 21.1252 59.2435 19.7314 59.2435 18.0327C59.2435 16.3339 57.8497 14.9401 56.151 14.9401ZM56.151 42.8457C54.4377 42.8457 53.0584 44.2396 53.0584 45.9383C53.0584 47.637 54.4522 49.0309 56.151 49.0309C57.8497 49.0309 59.2435 47.637 59.2435 45.9383C59.2435 44.2396 57.8497 42.8457 56.151 42.8457ZM7.81703 42.8457C6.10378 42.8457 4.72447 44.2396 4.72447 45.9383C4.72447 47.637 6.1183 49.0309 7.81703 49.0309C9.51576 49.0309 10.9096 47.637 10.9096 45.9383C10.9096 44.2396 9.51576 42.8457 7.81703 42.8457ZM23.4105 14.824C22.5394 14.824 21.8279 15.2305 21.4069 15.9855L12.8261 30.853C12.3905 31.608 12.3905 32.4211 12.8261 33.176L21.3923 48.0436C21.8279 48.7985 22.5394 49.2051 23.396 49.2051H40.5575C41.4141 49.2051 42.1401 48.7985 42.5611 48.0436L51.1419 33.176C51.5775 32.4356 51.5775 31.608 51.1419 30.8675L42.5756 16C42.1401 15.2595 41.4286 14.8385 40.572 14.8385H23.4105V14.824ZM31.9913 56.8131C30.278 56.8131 28.8987 58.2069 28.8987 59.9056C28.8987 61.6044 30.2925 62.9982 31.9913 62.9982C33.69 62.9982 35.0838 61.6044 35.0838 59.9056C35.0838 58.2069 33.69 56.8131 31.9913 56.8131ZM32.0058 64C29.7553 64 27.9114 62.1706 27.9114 59.9056C27.9114 57.9601 29.2907 56.2759 31.2072 55.8984L31.4976 55.8403V50.1633H23.4105C22.2054 50.1633 21.16 49.5681 20.5502 48.5082L16.3397 41.2196L11.4468 44.0508L11.5775 44.3412C11.7953 44.8494 11.9114 45.4011 11.9114 45.9383C11.9114 48.1887 10.082 50.0182 7.81703 50.0182C5.55206 50.0182 3.72266 48.2178 3.72266 45.9528C3.72266 43.6878 5.55206 41.8584 7.80251 41.8584C8.87692 41.8584 9.89325 42.2795 10.6628 43.0345L10.866 43.2378L15.8315 40.363L11.9404 33.6407C11.3306 32.5808 11.3306 31.3902 11.9404 30.3448L16.151 23.0563L11.2435 20.225L11.0548 20.4864C10.2853 21.5027 9.06567 22.1125 7.78799 22.1125C5.55206 22.127 3.72266 20.2976 3.72266 18.0327C3.72266 15.7677 5.55206 13.9383 7.80251 13.9383C10.053 13.9383 11.8969 15.7677 11.8969 18.0327C11.8969 18.3666 11.8533 18.7151 11.7662 19.049L11.6936 19.3249L16.6591 22.1996L20.5502 15.4773C21.16 14.4319 22.2054 13.8367 23.4105 13.8367H31.4831V8.14519L31.1927 8.08711C29.2907 7.70962 27.8969 6.02541 27.8969 4.07985C27.8969 1.8294 29.7263 0 31.9767 0C34.2272 0 36.0711 1.8294 36.0711 4.07985C36.0711 6.02541 34.6918 7.70962 32.7753 8.08711L32.4849 8.14519V13.8367H40.5865C41.7916 13.8367 42.837 14.4319 43.4468 15.4773L47.3379 22.1996L52.3034 19.3249L52.2308 19.049C52.1437 18.7151 52.1001 18.3666 52.1001 18.0327C52.1001 15.7822 53.9296 13.9383 56.18 13.9383C58.4305 13.9383 60.2599 15.7677 60.2599 18.0327C60.2599 20.2976 58.4305 22.127 56.18 22.127C54.9023 22.127 53.6827 21.5172 52.9132 20.4864L52.7245 20.225L47.8315 23.0563L52.0421 30.3448C52.6519 31.3902 52.6519 32.5953 52.0421 33.6407L48.151 40.363L53.1165 43.2378L53.3197 43.0345C54.0747 42.294 55.1201 41.8584 56.18 41.8584C58.4159 41.8584 60.2599 43.7024 60.2889 45.9528C60.2889 48.2033 58.4595 50.0327 56.209 50.0327C53.9586 50.0327 52.1147 48.2033 52.1147 45.9528C52.1147 45.3866 52.2308 44.8494 52.4341 44.3557L52.5648 44.0508L47.6718 41.2196L43.4613 48.5082C42.8515 49.5535 41.8061 50.1633 40.6011 50.1633H32.5139V55.8403L32.8043 55.8984C34.7063 56.2759 36.1001 57.9601 36.1001 59.9056C36.1001 62.1561 34.2707 64 32.0203 64" fill="#FCB44A"/>
</g>
</svg>
