<svg width="27" height="27" viewBox="0 0 27 27" fill="none" xmlns="http://www.w3.org/2000/svg">
<g clip-path="url(#clip0_1373_2460)">
<mask id="mask0_1373_2460" style="mask-type:luminance" maskUnits="userSpaceOnUse" x="0" y="0" width="27" height="27">
<path d="M27 0H0V27H27V0Z" fill="white"/>
</mask>
<g mask="url(#mask0_1373_2460)">
<g clip-path="url(#clip1_1373_2460)">
<mask id="mask1_1373_2460" style="mask-type:luminance" maskUnits="userSpaceOnUse" x="0" y="0" width="28" height="27">
<path d="M27.3228 0.724609H0.015625V26.3262H27.3228V0.724609Z" fill="white"/>
</mask>
<g mask="url(#mask1_1373_2460)">
<path d="M13.7143 4.81692C15.4517 4.81418 17.1508 5.32264 18.5968 6.27795C20.0427 7.23327 21.1703 8.59249 21.8371 10.1837C22.5039 11.7748 22.6798 13.5264 22.3425 15.2167C22.0053 16.9071 21.17 18.4602 19.9425 19.6796C18.715 20.899 17.1503 21.7298 15.4466 22.067C13.7428 22.4042 11.9765 22.2325 10.3711 21.5738C8.76569 20.915 7.3934 19.7987 6.42788 18.3662C5.46236 16.9336 4.94698 15.2493 4.94698 13.5261C4.94698 11.2187 5.87025 9.00558 7.51404 7.37268C9.15783 5.73978 11.3878 4.82059 13.7143 4.81692ZM13.7143 4C11.8147 4 9.95764 4.55869 8.37811 5.60544C6.79858 6.65219 5.56749 8.13997 4.84051 9.88064C4.11354 11.6213 3.92333 13.5367 4.29394 15.3846C4.66455 17.2325 5.57932 18.9299 6.9226 20.2622C8.26588 21.5944 9.97732 22.5017 11.8405 22.8692C13.7037 23.2368 15.6349 23.0482 17.39 22.3272C19.1451 21.6061 20.6451 20.3852 21.7006 18.8186C22.756 17.252 23.3193 15.4102 23.3193 13.5261C23.3193 10.9996 22.3073 8.57665 20.506 6.79015C18.7048 5.00365 16.2617 4 13.7143 4Z" fill="white"/>
<path d="M12.039 12.28C12.0946 12.2819 12.1499 12.2725 12.2016 12.2523C12.2533 12.2321 12.3002 12.2016 12.3395 12.1626C12.3788 12.1237 12.4096 12.0771 12.4299 12.0258C12.4503 11.9746 12.4598 11.9197 12.4578 11.8646V9.38616C12.4576 9.32968 12.4685 9.2737 12.4901 9.22143C12.5116 9.16915 12.5434 9.12162 12.5835 9.08154C12.6645 9.01068 12.7687 8.97133 12.8767 8.97077H14.5659C14.6739 8.97133 14.7781 9.01068 14.8591 9.08154C14.8992 9.12162 14.931 9.16915 14.9525 9.22143C14.9741 9.2737 14.985 9.32968 14.9847 9.38616V11.8646C14.9828 11.9197 14.9923 11.9746 15.0126 12.0258C15.033 12.0771 15.0638 12.1237 15.1031 12.1626C15.1424 12.2016 15.1893 12.2321 15.241 12.2523C15.2927 12.2725 15.3481 12.2819 15.4036 12.28H17.9026C18.0125 12.2835 18.117 12.3283 18.1948 12.4055C18.2726 12.4827 18.3179 12.5863 18.3214 12.6954V14.3569C18.3214 14.4113 18.3102 14.4651 18.2886 14.5151C18.267 14.5651 18.2354 14.6102 18.1957 14.6477C18.1176 14.7247 18.0127 14.7693 17.9026 14.7723H15.4036C15.3492 14.7705 15.2951 14.7795 15.2444 14.7988C15.1936 14.8181 15.1473 14.8474 15.1082 14.8849C15.0692 14.9224 15.0381 14.9673 15.0169 15.0169C14.9956 15.0666 14.9847 15.1199 14.9847 15.1738V17.6662C14.9865 17.7208 14.9762 17.7751 14.9545 17.8254C14.9328 17.8756 14.9002 17.9205 14.8591 17.9569C14.8213 17.9963 14.7758 18.0276 14.7254 18.0491C14.675 18.0705 14.6208 18.0815 14.5659 18.0815H12.8906C12.8358 18.0815 12.7816 18.0705 12.7312 18.0491C12.6808 18.0276 12.6353 17.9963 12.5975 17.9569C12.5564 17.9205 12.5238 17.8756 12.5021 17.8254C12.4804 17.7751 12.4701 17.7208 12.4718 17.6662V15.1738C12.4719 15.1199 12.461 15.0666 12.4397 15.0169C12.4185 14.9673 12.3874 14.9224 12.3484 14.8849C12.3093 14.8474 12.263 14.8181 12.2122 14.7988C12.1615 14.7795 12.1073 14.7705 12.053 14.7723H9.54006C9.42991 14.7693 9.32507 14.7247 9.2469 14.6477C9.2072 14.6102 9.17558 14.5651 9.15398 14.5151C9.13238 14.4651 9.12126 14.4113 9.12126 14.3569V12.6954C9.12475 12.5863 9.17 12.4827 9.2478 12.4055C9.3256 12.3283 9.43009 12.2835 9.54006 12.28H12.039ZM11.6202 11.4492H9.54006C9.20696 11.4524 8.88757 11.5811 8.6466 11.8092C8.53024 11.926 8.43827 12.0643 8.37598 12.2164C8.31369 12.3685 8.28229 12.5312 8.28361 12.6954V14.3569C8.2836 14.5199 8.3162 14.6813 8.37951 14.8317C8.44283 14.9821 8.53558 15.1186 8.65244 15.2332C8.7693 15.3478 8.90793 15.4383 9.06029 15.4994C9.21266 15.5605 9.37573 15.5911 9.54006 15.5892H11.6202V17.6662C11.6274 17.9944 11.762 18.3073 11.9961 18.5395C12.2302 18.7717 12.5457 18.9052 12.8767 18.9123H14.5659C14.7302 18.9107 14.8925 18.8769 15.0434 18.8127C15.1944 18.7486 15.331 18.6553 15.4455 18.5385C15.5646 18.426 15.6594 18.2906 15.7242 18.1407C15.789 17.9907 15.8224 17.8293 15.8224 17.6662V15.5892H17.9026C18.0681 15.5905 18.2321 15.5594 18.3855 15.4976C18.5388 15.4359 18.6783 15.3446 18.796 15.2292C19.0228 14.9937 19.1523 14.6825 19.159 14.3569V12.6954C19.1609 12.5312 19.1296 12.3683 19.0672 12.2163C19.0047 12.0643 18.9122 11.9262 18.7952 11.8101C18.6781 11.694 18.5388 11.6023 18.3856 11.5403C18.2323 11.4783 18.0681 11.4474 17.9026 11.4492H15.8224V9.38616C15.8198 9.05296 15.6843 8.73434 15.4455 8.5C15.3304 8.38501 15.1933 8.29394 15.0422 8.23213C14.8912 8.17031 14.7293 8.13898 14.5659 8.13999H12.8906C12.727 8.13739 12.5646 8.168 12.4134 8.22991C12.2621 8.29182 12.1253 8.38373 12.0111 8.5C11.7723 8.73434 11.6367 9.05296 11.6342 9.38616L11.6202 11.4492Z" fill="white"/>
</g>
</g>
</g>
</g>
<defs>
<clipPath id="clip0_1373_2460">
<rect width="27" height="27" fill="white"/>
</clipPath>
<clipPath id="clip1_1373_2460">
<rect width="27.3071" height="25.6015" fill="white" transform="translate(0.015625 0.724609)"/>
</clipPath>
</defs>
</svg>
